{"glyphs":{"0":{"ha":733,"x_min":77,"x_max":662,"o":"m 662 521 q 604 881 662 741 q 373 1062 528 1062 q 138 880 215 1062 q 77 519 77 737 q 136 165 77 306 q 365 -13 212 -13 q 602 166 524 -13 q 662 521 662 305 m 463 552 q 457 365 463 439 q 369 177 440 170 q 291 296 310 177 q 279 517 279 366 q 287 693 279 613 q 373 874 304 874 q 449 761 427 874 q 463 552 463 687 "},"1":{"ha":441,"x_min":70,"x_max":367,"o":"m 367 -4 l 367 1045 l 70 1045 l 70 867 l 166 867 l 167 -4 l 367 -4 "},"2":{"ha":694,"x_min":66,"x_max":628,"o":"m 628 790 q 566 979 628 910 q 354 1055 496 1055 q 130 957 193 1055 q 82 736 82 883 l 82 676 l 273 676 l 273 776 q 293 869 273 829 q 354 909 313 909 q 418 868 396 909 q 436 787 436 836 q 418 667 436 720 q 370 563 406 632 l 66 0 l 610 0 l 610 180 l 374 180 l 572 561 q 617 674 605 624 q 628 790 628 724 "},"3":{"ha":723,"x_min":71,"x_max":652,"o":"m 652 304 q 575 508 652 444 q 492 548 533 527 q 557 594 536 571 q 620 794 620 666 q 558 985 620 913 q 356 1066 489 1066 q 173 989 236 1066 q 116 810 116 920 l 116 759 l 292 759 l 292 797 q 311 859 292 832 q 361 885 330 885 q 412 863 395 885 q 430 778 430 841 q 400 677 430 709 q 319 645 371 645 l 274 645 l 274 465 l 325 465 q 402 428 375 465 q 428 325 428 391 q 408 216 428 261 q 340 171 387 171 q 285 194 309 171 q 261 247 261 217 l 261 284 l 71 284 l 71 236 q 149 59 71 129 q 344 -10 226 -10 q 563 77 475 -10 q 652 304 652 164 "},"4":{"ha":714,"x_min":70,"x_max":649,"o":"m 649 249 l 649 408 l 567 408 l 567 1046 l 339 1046 l 70 409 l 70 251 l 366 251 l 366 -3 l 567 -3 l 567 249 l 649 249 m 366 406 l 214 406 l 366 800 l 366 406 "},"5":{"ha":681,"x_min":70,"x_max":614,"o":"m 614 334 q 528 607 614 521 q 304 701 457 679 l 334 862 l 585 862 l 585 1045 l 190 1045 l 109 532 q 145 540 131 539 q 186 541 158 541 q 331 501 278 541 q 395 352 395 453 q 350 223 395 275 q 228 170 305 170 q 106 219 156 170 l 70 35 q 170 -1 105 14 q 276 -16 235 -16 q 517 70 427 -16 q 614 334 614 162 "},"6":{"ha":714,"x_min":73,"x_max":645,"o":"m 645 363 q 596 585 645 492 q 439 693 539 693 q 369 680 398 693 q 306 637 339 666 l 504 1045 l 306 1045 l 175 767 q 97 558 121 650 q 73 354 73 465 q 132 104 73 199 q 362 -13 206 -13 q 572 106 492 -13 q 645 363 645 215 m 449 352 q 427 223 449 282 q 365 165 405 165 q 293 222 318 165 q 274 331 274 266 q 300 456 274 398 q 371 514 327 514 q 434 460 414 514 q 449 352 449 417 "},"7":{"ha":752,"x_min":75,"x_max":680,"o":"m 680 1042 l 121 1042 l 121 861 l 396 861 l 75 0 l 289 0 l 680 1042 "},"8":{"ha":742,"x_min":75,"x_max":668,"o":"m 668 293 q 617 476 668 401 q 495 569 576 535 q 563 614 541 592 q 631 787 631 680 q 559 988 631 910 q 376 1067 487 1067 q 186 982 261 1067 q 112 781 112 897 q 177 614 112 675 q 252 569 195 597 q 127 484 173 546 q 75 296 75 413 q 160 77 75 162 q 370 -9 244 -9 q 583 74 497 -9 q 668 293 668 157 m 432 783 q 421 713 432 740 q 370 678 405 678 q 323 717 337 678 q 314 790 314 742 q 326 870 314 837 q 371 903 339 903 q 419 862 402 903 q 432 783 432 828 m 458 319 q 439 222 458 262 q 371 175 415 175 q 306 219 326 175 q 286 319 286 262 q 306 424 286 379 q 371 469 326 469 q 437 418 413 469 q 458 319 458 375 "},"9":{"ha":723,"x_min":71,"x_max":648,"o":"m 648 692 q 588 942 648 846 q 358 1062 514 1062 q 145 941 227 1062 q 71 681 71 832 q 122 462 71 556 q 278 356 179 356 q 348 369 318 356 q 410 411 378 383 l 210 0 l 408 0 l 541 279 q 623 490 598 398 q 648 692 648 582 m 447 714 q 424 596 447 646 q 356 536 398 536 q 287 589 308 536 q 271 693 271 628 q 295 823 271 766 q 370 880 319 880 q 428 823 406 880 q 447 714 447 775 "},"×":{"ha":0,"x_min":0,"x_max":0,"o":""}," ":{"ha":280,"x_min":0,"x_max":0,"o":""},"!":{"ha":404,"x_min":73,"x_max":337,"o":"m 308 317 l 308 1045 l 109 1045 l 109 317 l 308 317 m 337 122 q 297 215 337 177 q 199 253 256 253 q 110 214 147 253 q 73 121 73 174 q 112 30 73 66 q 205 -6 151 -6 q 299 31 260 -6 q 337 122 337 69 "},"\"":{"ha":587,"x_min":75,"x_max":519,"o":"m 519 1045 l 325 1045 l 348 644 l 497 644 l 519 1045 m 270 1045 l 75 1045 l 97 644 l 247 644 l 270 1045 "},"#":{"ha":742,"x_min":70,"x_max":672,"o":"m 672 598 l 672 736 l 570 736 l 607 1044 l 493 1044 l 452 737 l 354 737 l 388 1044 l 273 1044 l 234 737 l 104 737 l 104 596 l 222 596 l 204 472 l 70 472 l 70 332 l 183 332 l 148 8 l 265 8 l 308 331 l 405 331 l 367 6 l 482 6 l 524 332 l 643 332 l 643 471 l 537 471 l 557 598 l 672 598 m 436 597 l 422 471 l 325 471 l 340 597 l 436 597 "},"$":{"ha":761,"x_min":71,"x_max":693,"o":"m 693 309 q 637 493 693 419 q 483 613 589 556 q 373 663 478 615 q 267 772 267 711 q 269 790 267 784 q 304 860 275 833 q 378 887 334 887 q 470 863 423 887 q 543 805 528 833 l 658 931 q 630 963 641 951 q 556 1018 594 998 q 475 1049 518 1037 q 437 1057 461 1053 l 437 1184 l 331 1184 l 332 1055 q 210 1014 251 1037 q 73 779 87 941 q 71 749 71 768 q 147 566 71 644 q 275 479 196 514 q 387 430 309 463 q 498 288 498 373 q 370 156 498 156 q 357 156 366 156 q 230 210 296 156 q 174 270 178 253 l 73 114 q 138 58 91 91 q 219 15 177 31 q 272 -4 262 -1 q 331 -10 282 -6 l 331 -135 l 436 -135 l 436 -12 q 504 10 454 -12 q 627 104 579 44 q 693 309 693 187 "},"%":{"ha":1211,"x_min":67,"x_max":1141,"o":"m 498 742 q 457 954 498 877 q 282 1054 404 1054 q 112 957 167 1054 q 67 750 67 879 q 114 546 67 624 q 291 452 171 452 q 458 545 406 452 q 498 742 498 617 m 923 1040 l 775 1040 l 283 0 l 432 0 l 923 1040 m 1141 280 q 1099 493 1141 415 q 924 593 1046 593 q 754 495 810 593 q 709 288 709 414 q 755 84 709 161 q 933 -10 813 -10 q 1101 83 1049 -10 q 1141 280 1141 156 m 334 754 q 323 656 334 700 q 287 611 313 611 q 246 653 258 611 q 234 752 234 694 q 247 849 234 803 q 286 892 260 894 q 321 859 308 892 q 334 754 334 827 m 976 292 q 966 194 976 238 q 929 151 955 151 q 888 192 901 151 q 876 291 876 234 q 889 387 876 343 q 928 431 902 431 q 968 382 957 428 q 976 292 976 350 "},"&":{"ha":918,"x_min":73,"x_max":848,"o":"m 848 286 l 733 448 q 707 415 724 435 q 678 383 689 395 q 623 334 653 356 l 482 556 q 606 683 540 580 q 658 849 658 763 q 587 1004 658 945 q 408 1063 517 1063 q 225 992 295 1063 q 154 814 154 920 q 178 704 154 766 q 231 601 208 624 q 119 484 166 562 q 73 310 73 406 q 160 83 73 178 q 379 -12 247 -12 q 498 16 440 -12 q 567 60 536 32 l 610 0 l 841 0 l 727 174 l 787 225 l 848 286 m 461 835 q 426 742 461 776 q 392 722 415 732 q 357 768 378 727 q 343 827 343 798 q 362 874 343 854 q 406 894 380 894 q 445 875 430 894 q 461 835 461 855 m 474 210 q 435 190 453 195 q 387 186 418 186 q 312 232 340 191 q 283 326 283 273 q 330 431 283 388 l 474 210 "},"'":{"ha":334,"x_min":70,"x_max":265,"o":"m 265 1045 l 70 1045 l 93 644 l 243 644 l 265 1045 "},"(":{"ha":470,"x_min":71,"x_max":406,"o":"m 406 1107 l 228 1149 q 108 836 144 992 q 71 505 71 680 q 107 201 71 350 q 222 -101 143 52 l 397 -58 q 294 225 322 96 q 266 502 266 354 q 299 815 266 668 q 406 1107 332 961 "},")":{"ha":470,"x_min":70,"x_max":405,"o":"m 405 505 q 367 835 405 676 q 248 1149 330 994 l 70 1107 q 177 814 144 961 q 210 502 210 667 q 184 234 210 352 q 79 -58 154 96 l 254 -101 q 371 202 337 58 q 405 505 405 347 "},"*":{"ha":596,"x_min":66,"x_max":522,"o":"m 522 802 l 382 885 l 521 966 l 476 1040 l 340 959 l 340 1120 l 249 1120 l 249 961 l 113 1042 l 66 964 l 206 884 l 67 806 l 112 727 l 249 811 l 249 645 l 343 645 l 343 813 l 475 724 l 522 802 "},"+":{"ha":761,"x_min":75,"x_max":696,"o":"m 696 273 l 696 424 l 461 424 l 461 680 l 309 680 l 309 423 l 75 423 l 75 271 l 309 271 l 309 0 l 461 0 l 461 273 l 696 273 "},",":{"ha":484,"x_min":61,"x_max":406,"o":"m 406 227 l 200 227 l 61 -200 l 200 -200 l 406 227 "},"-":{"ha":484,"x_min":70,"x_max":418,"o":"m 418 344 l 418 527 l 70 527 l 70 344 l 418 344 "},".":{"ha":409,"x_min":77,"x_max":341,"o":"m 341 118 q 300 211 341 173 q 202 249 260 249 q 113 210 149 249 q 77 117 77 171 q 116 27 77 64 q 209 -9 154 -9 q 302 27 263 -9 q 341 118 341 64 "},"/":{"ha":798,"x_min":60,"x_max":737,"o":"m 737 1107 l 597 1154 l 60 -190 l 202 -232 l 737 1107 "},":":{"ha":409,"x_min":75,"x_max":344,"o":"m 344 585 q 303 680 344 641 q 205 718 262 718 q 116 678 153 718 q 79 585 79 639 q 118 495 79 531 q 212 458 157 458 q 305 496 266 458 q 344 585 344 533 m 344 126 q 305 219 344 182 q 205 257 266 257 q 113 218 151 257 q 75 125 75 179 q 116 30 75 69 q 212 -9 156 -9 q 305 31 266 -9 q 344 126 344 71 "},";":{"ha":498,"x_min":75,"x_max":427,"o":"m 427 579 q 386 672 427 633 q 289 710 345 710 q 199 671 235 710 q 162 578 162 632 q 202 489 162 526 q 295 452 241 452 q 388 488 349 452 q 427 579 427 524 m 421 226 l 214 226 l 75 -202 l 213 -202 l 421 226 "},"<":{"ha":771,"x_min":70,"x_max":700,"o":"m 700 598 l 700 754 l 70 440 l 70 300 l 696 -10 l 696 143 l 249 369 l 700 598 "},"=":{"ha":766,"x_min":70,"x_max":693,"o":"m 693 401 l 693 556 l 73 556 l 73 401 l 693 401 m 689 131 l 689 284 l 70 284 l 70 131 l 689 131 "},">":{"ha":761,"x_min":61,"x_max":691,"o":"m 691 300 l 691 440 l 61 754 l 61 598 l 511 369 l 65 143 l 65 -10 l 691 300 "},"?":{"ha":696,"x_min":71,"x_max":623,"o":"m 623 762 q 544 975 623 890 q 325 1063 461 1063 q 108 942 170 1063 q 71 774 71 872 q 71 757 71 767 l 267 757 q 265 774 265 762 q 278 841 265 811 q 331 881 296 881 q 388 839 370 881 q 402 750 402 805 q 384 648 402 688 q 314 588 362 598 q 288 585 305 585 q 247 592 266 585 l 247 330 l 454 330 l 454 467 q 543 517 532 506 q 623 762 623 594 m 350 -10 q 447 28 413 -10 q 482 119 482 66 q 449 210 482 174 q 350 251 413 251 q 254 212 288 251 q 221 119 221 173 q 255 28 221 66 q 350 -10 289 -10 "},"@":{"ha":1180,"x_min":71,"x_max":1110,"o":"m 1110 632 q 975 942 1110 824 q 614 1060 840 1060 q 231 915 384 1060 q 71 522 71 765 q 215 141 71 289 q 620 -14 367 -14 q 1045 215 885 -14 l 914 215 q 783 119 848 149 q 631 90 718 90 q 299 218 424 90 q 179 528 179 340 q 304 836 179 714 q 606 958 428 958 q 896 855 785 958 q 1002 598 1002 757 q 964 441 1002 510 q 850 337 927 373 q 835 345 840 334 q 833 369 831 357 l 905 790 l 771 790 l 757 719 q 717 762 735 749 q 583 801 663 801 q 376 702 460 801 q 292 475 292 604 q 348 302 292 373 q 514 226 409 226 q 612 250 559 226 q 694 308 665 274 q 693 305 693 306 q 692 286 692 299 q 709 235 692 249 q 758 221 727 221 q 990 339 880 221 q 1110 632 1110 466 m 710 541 q 668 409 710 466 q 561 352 627 352 q 476 389 508 352 q 444 485 444 426 q 491 617 444 561 q 609 674 539 674 q 689 632 663 674 q 710 541 710 598 "},"A":{"ha":776,"x_min":32,"x_max":737,"o":"m 737 0 l 496 1045 l 278 1045 l 32 0 l 239 0 l 276 175 l 480 175 l 522 0 l 737 0 m 453 343 l 308 343 l 378 771 l 453 343 "},"B":{"ha":676,"x_min":99,"x_max":637,"o":"m 637 293 q 511 539 637 450 q 622 752 622 622 q 543 958 622 871 q 349 1045 465 1045 l 99 1045 l 99 0 l 314 0 q 540 75 449 0 q 637 293 637 156 m 424 750 q 391 652 424 687 q 304 618 357 618 l 304 870 q 392 841 360 870 q 424 750 424 813 m 432 319 q 397 213 432 251 q 304 174 367 182 l 304 457 q 374 444 358 452 q 432 319 432 414 "},"C":{"ha":694,"x_min":71,"x_max":628,"o":"m 628 848 l 628 1035 q 587 1048 593 1046 q 519 1055 556 1055 q 192 894 321 1055 q 71 533 71 744 q 192 158 71 315 q 523 -10 322 -10 q 573 -5 548 -10 q 624 6 598 0 l 624 202 q 545 190 584 190 q 356 299 428 190 q 291 531 291 396 q 362 766 291 674 q 554 859 434 859 q 628 848 585 859 "},"D":{"ha":766,"x_min":104,"x_max":724,"o":"m 724 517 q 598 929 724 798 q 271 1045 487 1045 l 104 1045 l 104 0 l 292 0 q 606 127 493 0 q 724 517 724 261 m 517 543 q 469 293 517 383 q 375 202 434 227 q 310 184 343 193 l 310 858 q 366 848 337 853 q 465 768 427 827 q 517 543 517 688 "},"E":{"ha":554,"x_min":99,"x_max":514,"o":"m 514 848 l 514 1045 l 99 1045 l 99 0 l 511 0 l 511 197 l 304 197 l 304 426 l 487 426 l 487 623 l 304 623 l 304 848 l 514 848 "},"F":{"ha":563,"x_min":104,"x_max":521,"o":"m 521 848 l 521 1045 l 104 1045 l 104 0 l 310 0 l 310 426 l 495 426 l 495 623 l 310 623 l 310 848 l 521 848 "},"G":{"ha":845,"x_min":73,"x_max":774,"o":"m 774 483 l 774 589 l 432 589 l 432 395 l 563 395 q 566 382 563 391 q 566 367 566 374 q 536 247 566 304 q 443 179 501 179 q 312 300 347 179 q 289 532 289 375 q 318 758 289 667 q 431 875 354 875 q 502 850 476 875 q 544 742 527 824 l 746 820 q 633 999 706 938 q 434 1067 554 1067 q 157 901 253 1067 q 73 518 73 754 q 160 145 73 288 q 432 -12 256 -12 q 693 138 602 -12 q 774 483 774 270 "},"H":{"ha":761,"x_min":70,"x_max":697,"o":"m 697 0 l 697 1045 l 491 1045 l 491 639 l 287 639 l 287 1045 l 70 1045 l 70 0 l 283 0 l 283 440 l 487 440 l 487 0 l 697 0 "},"I":{"ha":396,"x_min":100,"x_max":310,"o":"m 310 0 l 310 1045 l 100 1045 l 100 0 l 310 0 "},"J":{"ha":545,"x_min":42,"x_max":447,"o":"m 447 301 l 447 1045 l 238 1045 l 238 318 q 238 279 238 305 q 227 213 238 236 q 174 170 213 182 q 158 165 170 169 q 138 165 148 165 q 83 179 109 165 q 43 217 51 197 l 42 21 q 109 -16 64 -5 q 213 -26 154 -26 q 397 73 339 -26 q 447 301 447 154 "},"K":{"ha":746,"x_min":108,"x_max":715,"o":"m 715 0 l 505 569 l 691 1045 l 485 1045 l 314 587 l 314 1045 l 108 1045 l 108 0 l 312 0 l 312 541 l 498 0 l 715 0 "},"L":{"ha":563,"x_min":108,"x_max":530,"o":"m 530 0 l 530 197 l 315 197 l 317 1045 l 108 1045 l 108 0 l 530 0 "},"M":{"ha":1015,"x_min":40,"x_max":974,"o":"m 974 0 l 868 1045 l 589 1045 l 506 439 l 409 1045 l 134 1045 l 40 0 l 265 0 l 296 720 l 432 0 l 592 0 l 714 746 l 763 0 l 974 0 "},"N":{"ha":794,"x_min":80,"x_max":727,"o":"m 727 1045 l 519 1045 l 537 419 l 282 1045 l 80 1045 l 80 0 l 292 0 l 278 635 l 528 0 l 726 0 l 727 1045 "},"O":{"ha":874,"x_min":80,"x_max":815,"o":"m 815 532 q 733 894 815 750 q 445 1066 636 1066 q 161 892 258 1066 q 80 531 80 748 q 162 164 80 310 q 449 -12 260 -12 q 732 165 633 -12 q 815 532 815 313 m 591 532 q 563 302 591 391 q 445 184 527 184 q 328 301 363 184 q 302 524 302 386 q 335 754 302 661 q 463 874 376 874 q 556 797 522 874 q 591 532 591 720 "},"P":{"ha":714,"x_min":108,"x_max":683,"o":"m 683 755 q 600 964 683 883 q 398 1045 518 1045 l 108 1045 l 108 0 l 319 0 l 319 437 q 387 431 358 431 q 605 530 521 431 q 683 755 683 620 m 475 737 q 438 634 475 667 q 344 601 401 601 q 321 602 328 601 l 321 871 l 375 871 q 450 836 424 871 q 475 737 475 801 "},"Q":{"ha":883,"x_min":117,"x_max":861,"o":"m 861 70 l 770 162 q 832 332 815 243 q 849 530 849 422 q 765 898 849 757 q 479 1062 667 1062 q 200 888 297 1062 q 117 526 117 740 q 199 162 117 308 q 485 -12 296 -12 q 588 5 545 -12 q 672 53 619 17 l 752 -34 l 861 70 m 627 532 q 627 521 627 528 q 628 482 627 501 q 628 445 628 463 q 625 382 628 410 q 614 322 622 354 l 517 432 l 408 330 l 530 199 q 512 188 521 192 q 483 183 504 183 q 366 300 402 183 q 339 524 339 388 q 371 753 339 661 q 500 871 413 871 q 606 745 574 871 q 627 532 627 663 "},"R":{"ha":757,"x_min":99,"x_max":707,"o":"m 707 0 l 526 476 q 618 561 584 511 q 671 757 671 639 q 579 972 671 893 q 363 1045 495 1045 l 99 1045 l 99 0 l 309 0 l 309 478 l 491 0 l 707 0 m 471 737 q 432 630 471 666 q 344 598 400 598 q 308 602 326 598 l 308 871 l 365 871 q 443 835 414 871 q 471 737 471 798 "},"S":{"ha":648,"x_min":73,"x_max":587,"o":"m 587 304 q 540 476 587 405 q 398 611 500 537 q 341 654 383 623 q 276 771 276 709 q 278 785 276 775 q 300 849 278 823 q 361 875 322 875 q 472 844 413 875 q 524 809 521 819 l 524 1015 q 463 1038 488 1031 q 318 1062 388 1062 q 139 971 210 1062 q 73 770 73 887 q 121 578 73 652 q 215 483 145 540 q 305 417 260 449 q 388 291 388 353 q 347 210 388 241 q 266 183 310 183 q 162 212 221 183 q 110 244 117 234 l 110 45 q 152 16 147 18 q 295 -12 206 -12 q 504 76 422 -12 q 587 304 587 164 "},"T":{"ha":676,"x_min":79,"x_max":609,"o":"m 609 848 l 609 1045 l 79 1045 l 79 848 l 243 848 l 243 0 l 452 0 l 452 848 l 609 848 "},"U":{"ha":752,"x_min":75,"x_max":687,"o":"m 687 275 l 687 1045 l 480 1045 l 480 286 q 462 206 480 234 q 383 173 439 173 q 308 204 339 173 q 278 282 278 236 l 278 1045 l 75 1045 l 75 254 q 153 58 75 130 q 380 -14 230 -14 q 623 70 546 -14 q 687 275 687 140 "},"V":{"ha":818,"x_min":47,"x_max":798,"o":"m 798 1045 l 587 1045 q 546 879 566 962 q 468 555 508 719 q 424 365 428 391 q 379 561 401 462 q 306 879 343 719 q 267 1045 287 962 l 47 1045 l 339 0 l 506 0 l 798 1045 "},"W":{"ha":1142,"x_min":52,"x_max":1115,"o":"m 1115 1045 l 902 1045 q 875 870 901 1045 q 826 535 842 653 q 800 322 800 352 l 672 1045 l 505 1045 q 472 880 504 1045 q 410 552 436 689 q 369 312 378 374 q 341 526 369 336 q 289 871 314 715 q 262 1045 275 958 l 52 1045 l 256 0 l 435 0 l 589 720 l 726 0 l 902 0 l 1115 1045 "},"X":{"ha":757,"x_min":32,"x_max":726,"o":"m 726 0 l 487 535 l 709 1045 l 480 1045 l 375 745 l 265 1045 l 32 1045 l 253 532 l 35 0 l 263 0 l 375 322 l 491 0 l 726 0 "},"Y":{"ha":766,"x_min":47,"x_max":739,"o":"m 739 1045 l 514 1045 l 400 710 l 269 1045 l 47 1045 l 296 500 l 296 0 l 498 0 l 497 501 l 739 1045 "},"Z":{"ha":714,"x_min":47,"x_max":700,"o":"m 700 1045 l 86 1045 l 86 848 l 388 848 l 47 0 l 672 0 l 672 197 l 345 197 l 700 1045 "},"[":{"ha":498,"x_min":80,"x_max":432,"o":"m 432 -36 l 432 103 l 263 103 l 263 1045 l 431 1045 l 431 1181 l 80 1181 l 80 -36 l 432 -36 "},"\\":{"ha":775,"x_min":75,"x_max":710,"o":"m 710 -32 l 210 1138 l 75 1081 l 580 -100 l 710 -32 "},"]":{"ha":493,"x_min":75,"x_max":428,"o":"m 428 -36 l 428 1181 l 78 1181 l 78 1045 l 245 1045 l 245 103 l 75 103 l 75 -36 l 428 -36 "},"^":{"ha":535,"x_min":73,"x_max":469,"o":"m 469 863 l 270 1033 l 73 875 l 149 780 l 267 875 l 383 778 l 469 863 "},"_":{"ha":896,"x_min":-21,"x_max":911,"o":"m 911 -148 l 911 -77 l -21 -77 l -21 -148 l 911 -148 "},"`":{"ha":408,"x_min":84,"x_max":345,"o":"m 345 837 l 217 1036 l 84 970 l 251 780 l 345 837 "},"a":{"ha":653,"x_min":45,"x_max":561,"o":"m 561 0 l 561 697 l 362 697 l 362 618 q 309 680 330 665 q 226 705 276 705 q 82 587 129 705 q 45 354 45 496 q 87 108 45 210 q 234 -18 138 -18 q 306 6 274 -18 q 358 65 328 23 l 358 0 l 561 0 m 382 361 q 365 226 382 289 q 314 162 348 162 q 257 227 275 162 q 244 350 244 274 q 260 480 244 424 q 319 536 276 536 q 369 475 352 536 q 382 361 382 427 "},"b":{"ha":644,"x_min":99,"x_max":609,"o":"m 609 357 q 572 591 609 500 q 426 709 526 709 q 331 670 369 709 q 295 615 321 659 l 295 1110 l 99 1110 l 99 0 l 289 0 l 289 78 q 326 27 313 40 q 424 -16 367 -16 q 569 110 519 -16 q 609 357 609 213 m 413 347 q 398 227 413 274 q 336 166 380 166 q 292 226 308 166 q 276 353 276 286 q 293 479 276 421 q 348 537 310 537 q 398 471 380 537 q 413 347 413 419 "},"c":{"ha":511,"x_min":75,"x_max":445,"o":"m 445 526 l 445 691 q 394 709 413 705 q 345 714 375 714 q 140 598 214 714 q 75 350 75 497 q 134 105 75 205 q 330 -10 201 -10 q 441 14 387 -10 l 441 193 q 383 174 411 174 q 296 231 326 174 q 271 349 271 278 q 296 479 271 424 q 384 544 326 544 q 445 526 417 544 "},"d":{"ha":658,"x_min":43,"x_max":553,"o":"m 553 0 l 553 1110 l 357 1110 l 357 618 q 319 672 326 666 q 226 710 283 710 q 79 592 126 710 q 43 360 43 501 q 82 110 43 214 q 223 -17 130 -17 q 306 12 269 -17 q 362 80 336 35 l 362 0 l 553 0 m 375 356 q 358 229 375 289 q 313 166 341 169 q 249 230 267 166 q 238 349 238 271 q 256 477 238 414 q 304 540 274 540 q 361 476 341 540 q 375 356 375 430 "},"e":{"ha":644,"x_min":77,"x_max":576,"o":"m 576 409 q 517 619 576 532 q 340 715 450 715 q 135 592 205 715 q 77 336 77 489 q 141 93 77 190 q 348 -13 214 -13 q 508 58 449 -13 q 561 221 561 123 l 405 221 q 385 163 405 188 q 335 138 365 138 q 278 177 296 138 q 261 271 261 217 l 261 302 l 570 302 q 574 344 571 310 q 576 409 576 378 m 404 426 l 262 426 q 261 440 261 427 q 275 515 261 480 q 332 563 295 563 q 392 518 373 563 q 405 445 405 487 q 404 426 405 427 "},"f":{"ha":498,"x_min":75,"x_max":437,"o":"m 437 544 l 437 697 l 341 697 l 341 867 q 349 908 341 888 q 369 933 357 928 q 392 938 382 938 q 434 924 415 938 l 434 1111 q 341 1132 387 1132 q 186 1066 232 1132 q 149 915 149 1014 l 149 697 l 75 697 l 75 544 l 149 544 l 149 0 l 349 0 l 349 544 l 437 544 "},"g":{"ha":658,"x_min":43,"x_max":562,"o":"m 562 -53 l 562 697 l 362 697 l 362 617 q 325 668 339 654 q 223 713 280 713 q 80 585 127 713 q 43 336 43 484 q 83 108 43 202 q 226 -14 131 -6 q 321 22 283 -14 q 365 86 337 39 l 365 -83 q 350 -158 365 -130 q 293 -196 332 -196 q 230 -145 245 -196 q 225 -95 226 -129 l 49 -95 q 114 -276 49 -199 q 302 -353 178 -353 q 504 -271 439 -353 q 562 -53 562 -197 m 373 348 q 358 227 373 278 q 304 165 340 165 q 254 226 273 165 q 235 354 235 287 q 248 475 235 431 q 310 537 266 537 q 358 471 340 537 q 373 348 373 418 "},"h":{"ha":630,"x_min":75,"x_max":563,"o":"m 563 0 l 563 563 q 536 658 563 613 q 441 715 501 715 q 308 650 361 715 q 273 587 291 630 l 273 1110 l 75 1110 l 75 0 l 271 0 l 271 440 q 282 493 271 470 q 318 517 293 517 q 355 498 341 517 q 369 456 369 479 l 369 0 l 563 0 "},"i":{"ha":445,"x_min":91,"x_max":344,"o":"m 344 900 q 308 996 344 957 q 217 1035 271 1035 q 126 996 161 1035 q 91 902 91 957 q 129 815 91 852 q 215 779 166 779 q 306 814 269 779 q 344 900 344 849 m 321 0 l 321 697 l 121 697 l 121 0 l 321 0 "},"j":{"ha":437,"x_min":95,"x_max":349,"o":"m 349 896 q 313 992 349 953 q 221 1031 276 1031 q 130 992 165 1031 q 95 898 95 953 q 132 812 95 848 q 221 776 169 776 q 310 811 271 776 q 349 896 349 846 m 326 -343 l 326 697 l 125 697 l 125 -343 l 326 -343 "},"k":{"ha":681,"x_min":114,"x_max":659,"o":"m 659 0 l 470 417 l 628 697 l 418 697 l 310 465 l 310 1110 l 114 1110 l 114 0 l 313 0 l 313 319 l 454 0 l 659 0 "},"l":{"ha":391,"x_min":97,"x_max":295,"o":"m 295 0 l 295 1110 l 99 1110 l 97 0 l 295 0 "},"m":{"ha":922,"x_min":71,"x_max":854,"o":"m 854 0 l 854 543 q 826 662 854 617 q 728 714 793 714 q 604 652 659 714 q 562 591 585 632 q 530 678 552 652 q 436 714 500 714 q 310 650 366 714 q 269 587 292 630 l 269 697 l 71 697 l 71 0 l 267 0 l 267 440 q 279 495 267 472 q 318 521 291 518 q 352 501 340 521 q 365 456 365 482 l 365 0 l 559 0 l 559 440 q 571 495 559 472 q 610 521 583 518 q 646 501 633 521 q 658 456 658 482 l 658 0 l 854 0 "},"n":{"ha":639,"x_min":80,"x_max":569,"o":"m 569 0 l 569 571 q 541 662 569 619 q 447 715 508 715 q 313 650 366 715 q 278 587 296 630 l 278 697 l 80 697 l 80 0 l 276 0 l 276 440 q 288 495 276 472 q 327 521 300 518 q 362 501 349 521 q 374 456 374 482 l 374 0 l 569 0 "},"o":{"ha":672,"x_min":75,"x_max":607,"o":"m 607 357 q 553 602 607 510 q 343 717 485 717 q 132 600 202 717 q 75 350 75 504 q 132 104 75 199 q 344 -12 201 -12 q 554 106 487 -12 q 607 357 607 200 m 410 362 q 396 231 410 287 q 344 166 378 161 q 283 232 300 173 q 273 345 273 270 q 289 486 273 426 q 348 537 305 546 q 402 471 388 528 q 410 362 410 439 "},"p":{"ha":653,"x_min":75,"x_max":585,"o":"m 585 347 q 546 604 585 508 q 401 719 500 719 q 301 676 343 719 q 266 626 292 666 l 266 697 l 75 697 l 75 -343 l 271 -343 l 271 88 q 326 17 304 32 q 402 -6 357 -6 q 549 113 501 -6 q 585 347 585 205 m 389 357 q 373 227 389 288 q 325 166 356 166 q 266 230 286 166 q 252 350 252 276 q 269 484 252 419 q 313 549 286 549 q 369 506 348 549 q 389 357 389 462 "},"q":{"ha":653,"x_min":78,"x_max":588,"o":"m 588 -343 l 588 697 l 397 697 l 397 623 q 362 674 371 665 q 262 715 321 715 q 118 589 167 715 q 78 343 78 487 q 116 109 78 202 q 261 -9 164 -9 q 339 16 305 -9 q 393 86 360 31 l 393 -343 l 588 -343 m 411 347 q 396 226 411 276 q 339 162 376 162 q 291 223 308 162 q 274 353 274 284 q 288 476 274 427 q 350 541 308 541 q 396 478 380 539 q 411 347 411 417 "},"r":{"ha":498,"x_min":105,"x_max":462,"o":"m 462 531 l 462 719 q 369 685 413 719 q 328 649 343 667 q 302 604 314 631 l 302 697 l 105 697 l 105 0 l 304 0 l 304 411 q 335 501 304 467 q 431 535 366 535 l 462 531 "},"s":{"ha":572,"x_min":70,"x_max":502,"o":"m 502 235 q 391 416 502 356 q 280 508 280 476 q 297 542 280 528 q 335 556 313 556 q 395 533 360 556 q 424 511 406 527 l 502 650 q 454 683 501 652 q 319 711 396 711 q 145 648 209 711 q 87 500 87 589 q 199 317 87 384 q 312 222 312 251 q 256 157 312 157 q 192 182 234 157 q 157 205 179 190 l 70 71 q 148 21 92 47 q 275 -12 218 -12 q 452 64 393 -12 q 502 235 502 129 "},"t":{"ha":483,"x_min":71,"x_max":414,"o":"m 414 532 l 414 697 l 337 697 l 337 890 l 138 890 l 138 697 l 71 697 l 71 535 l 138 535 l 138 0 l 332 0 l 332 532 l 414 532 "},"u":{"ha":633,"x_min":80,"x_max":565,"o":"m 565 232 l 565 697 l 373 697 l 373 252 q 360 197 373 222 q 323 173 348 173 q 284 197 295 173 q 274 256 274 221 l 274 697 l 80 697 l 80 223 q 139 58 80 121 q 317 -9 202 -9 q 499 59 434 -9 q 565 232 565 127 "},"v":{"ha":672,"x_min":73,"x_max":657,"o":"m 657 697 l 450 697 l 360 308 l 269 697 l 73 697 l 267 0 l 450 0 l 657 697 "},"w":{"ha":987,"x_min":43,"x_max":955,"o":"m 955 697 l 771 697 l 671 287 l 585 697 l 414 697 l 325 292 l 231 697 l 43 697 l 231 0 l 398 0 l 496 435 l 601 0 l 761 0 l 955 697 "},"x":{"ha":681,"x_min":43,"x_max":654,"o":"m 654 0 l 452 374 l 627 697 l 424 697 l 348 552 l 280 697 l 71 697 l 241 374 l 43 0 l 245 0 l 348 187 l 445 0 l 654 0 "},"y":{"ha":657,"x_min":52,"x_max":632,"o":"m 632 697 l 434 697 l 344 300 l 244 697 l 52 697 l 248 16 l 135 -343 l 332 -343 l 632 697 "},"z":{"ha":587,"x_min":56,"x_max":549,"o":"m 549 697 l 80 697 l 80 532 l 278 532 l 56 0 l 523 0 l 523 162 l 335 162 l 549 697 "},"{":{"ha":517,"x_min":75,"x_max":458,"o":"m 458 -52 l 458 58 q 426 61 437 58 q 400 74 414 64 q 366 120 375 93 q 357 187 357 147 l 357 392 q 354 454 357 430 q 337 495 350 479 q 297 535 318 521 q 248 556 276 550 q 297 575 278 561 q 336 615 317 589 q 352 652 349 633 q 356 705 356 671 q 356 719 356 709 l 356 923 q 365 989 356 961 q 398 1036 375 1018 q 423 1049 414 1048 q 457 1051 432 1051 l 457 1163 l 337 1163 q 267 1151 302 1163 q 214 1114 232 1138 q 186 1061 196 1089 q 177 1007 177 1033 l 177 727 q 171 679 177 698 q 149 641 165 659 q 75 606 118 606 l 75 505 q 151 470 119 505 q 173 433 169 450 q 178 384 178 415 l 178 104 q 217 -5 178 48 q 268 -40 235 -29 q 340 -52 301 -52 l 458 -52 "},"|":{"ha":276,"x_min":75,"x_max":208,"o":"m 208 -343 l 208 1045 l 75 1045 l 77 -343 l 208 -343 "},"}":{"ha":522,"x_min":75,"x_max":458,"o":"m 458 495 l 458 596 q 384 631 415 596 q 362 668 367 649 q 357 717 357 688 l 357 997 q 347 1051 357 1023 q 319 1103 337 1079 q 266 1140 301 1128 q 196 1153 231 1153 l 77 1153 l 77 1041 q 110 1038 96 1041 q 135 1025 123 1035 q 169 980 160 1007 q 178 913 178 953 l 178 709 q 183 639 178 659 q 197 605 188 618 q 286 545 235 554 q 196 484 235 535 q 179 447 182 466 q 177 382 177 428 l 177 177 q 167 110 177 139 q 134 64 157 82 q 109 50 118 52 q 75 48 100 48 l 75 -64 l 193 -64 q 264 -51 230 -64 q 317 -15 299 -39 q 346 38 336 9 q 356 93 356 67 l 356 374 q 362 422 356 402 q 383 460 367 441 q 458 495 414 495 "},"~":{"ha":626,"x_min":74,"x_max":567,"o":"m 567 970 l 505 1050 q 478 1005 491 1022 q 421 967 449 967 q 310 1018 365 993 q 219 1042 254 1042 q 123 987 171 1042 q 74 903 84 941 l 135 824 q 165 875 149 854 q 221 913 196 918 q 345 859 225 911 q 427 840 391 840 q 508 880 467 840 q 567 970 557 931 "},"Ä":{"ha":789,"x_min":88,"x_max":793,"o":"m 793 0 l 552 1045 l 334 1045 l 88 0 l 295 0 l 332 175 l 536 175 l 578 0 l 793 0 m 509 343 l 363 343 l 434 771 l 509 343 m 701 1214 q 672 1286 701 1255 q 604 1317 644 1317 q 528 1287 559 1317 q 496 1215 496 1256 q 526 1142 496 1172 q 598 1112 556 1112 q 671 1142 641 1112 q 701 1214 701 1172 m 415 1208 q 387 1286 415 1253 q 317 1320 358 1320 q 238 1286 270 1320 q 209 1207 205 1253 q 239 1139 209 1167 q 312 1111 270 1111 q 384 1140 353 1111 q 415 1208 415 1168 "},"Å":{"ha":779,"x_min":69,"x_max":774,"o":"m 566 1251 q 522 1358 566 1314 q 418 1403 479 1403 q 312 1356 356 1403 q 269 1245 269 1308 q 312 1144 269 1185 q 417 1103 356 1103 q 522 1147 478 1103 q 566 1251 566 1192 m 475 1251 q 458 1210 475 1227 q 418 1193 441 1193 q 376 1210 392 1193 q 360 1255 360 1228 q 377 1295 360 1279 q 419 1311 395 1311 q 459 1293 443 1311 q 475 1251 475 1276 m 774 0 l 532 1045 l 314 1045 l 69 0 l 275 0 l 313 175 l 517 175 l 558 0 l 774 0 m 489 343 l 344 343 l 414 771 l 489 343 "},"Ç":{"ha":700,"x_min":75,"x_max":632,"o":"m 632 848 l 632 1035 q 574 1051 593 1048 q 524 1055 554 1055 q 197 894 327 1055 q 75 533 75 742 q 197 158 75 317 q 528 -10 327 -10 q 578 -5 553 -10 q 630 6 604 0 l 630 202 q 588 191 601 193 q 550 190 575 190 q 361 299 432 190 q 296 531 296 397 q 367 766 296 674 q 558 859 439 859 q 594 857 580 859 q 632 848 607 855 m 505 -117 l 384 -66 l 273 -253 l 361 -297 l 505 -117 "},"É":{"ha":549,"x_min":61,"x_max":476,"o":"m 476 848 l 476 1045 l 61 1045 l 61 0 l 474 0 l 474 197 l 266 197 l 266 426 l 449 426 l 449 623 l 266 623 l 266 848 l 476 848 m 405 1305 l 266 1367 l 132 1168 l 230 1112 l 405 1305 "},"Ñ":{"ha":789,"x_min":80,"x_max":727,"o":"m 727 1045 l 519 1045 l 537 419 l 282 1045 l 80 1045 l 80 0 l 292 0 l 278 635 l 528 0 l 726 0 l 727 1045 m 646 1260 l 584 1341 q 557 1295 570 1312 q 500 1258 528 1258 q 389 1308 444 1284 q 299 1333 334 1333 q 202 1277 251 1333 q 153 1194 164 1232 l 214 1115 q 244 1166 228 1145 q 300 1203 275 1208 q 424 1150 304 1202 q 506 1131 470 1131 q 587 1171 546 1131 q 646 1260 636 1221 "},"Ö":{"ha":863,"x_min":75,"x_max":810,"o":"m 810 532 q 728 894 810 750 q 440 1066 631 1066 q 156 892 253 1066 q 75 531 75 748 q 157 164 75 310 q 444 -12 254 -12 q 727 165 628 -12 q 810 532 810 313 m 585 532 q 558 302 585 391 q 440 184 522 184 q 323 301 358 184 q 297 524 297 386 q 330 754 297 661 q 458 874 371 874 q 551 797 517 874 q 585 532 585 720 m 683 1214 q 654 1286 683 1255 q 585 1317 626 1317 q 509 1287 541 1317 q 478 1215 478 1256 q 508 1142 478 1172 q 580 1112 537 1112 q 653 1142 623 1112 q 683 1214 683 1172 m 397 1208 q 369 1286 397 1253 q 299 1320 340 1320 q 219 1286 252 1320 q 191 1207 187 1253 q 221 1139 191 1167 q 293 1111 252 1111 q 366 1140 335 1111 q 397 1208 397 1168 "},"Ü":{"ha":752,"x_min":75,"x_max":687,"o":"m 687 275 l 687 1045 l 480 1045 l 480 286 q 462 206 480 234 q 383 173 439 173 q 308 204 339 173 q 278 282 278 236 l 278 1045 l 75 1045 l 75 254 q 153 58 75 130 q 380 -14 230 -14 q 623 70 546 -14 q 687 275 687 140 m 644 1214 q 615 1286 644 1255 q 546 1317 587 1317 q 471 1287 502 1317 q 439 1215 439 1256 q 469 1142 439 1172 q 541 1112 498 1112 q 614 1142 584 1112 q 644 1214 644 1172 m 358 1208 q 330 1286 358 1253 q 260 1320 301 1320 q 180 1286 213 1320 q 152 1207 148 1253 q 182 1139 152 1167 q 254 1111 213 1111 q 327 1140 296 1111 q 358 1208 358 1168 "},"á":{"ha":653,"x_min":27,"x_max":543,"o":"m 543 0 l 543 697 l 344 697 l 344 618 q 291 680 312 665 q 208 705 258 705 q 64 587 110 705 q 27 354 27 496 q 69 108 27 210 q 215 -18 119 -18 q 288 6 256 -18 q 340 65 310 23 l 340 0 l 543 0 m 363 361 q 347 226 363 289 q 296 162 330 162 q 239 227 257 162 q 226 350 226 274 q 242 480 226 424 q 301 536 258 536 q 350 475 334 536 q 363 361 363 427 m 463 968 l 325 1031 l 191 832 l 288 776 l 463 968 "},"à":{"ha":648,"x_min":26,"x_max":541,"o":"m 541 0 l 541 697 l 343 697 l 343 618 q 289 680 310 665 q 206 705 257 705 q 62 587 109 705 q 26 354 26 496 q 67 108 26 210 q 214 -18 118 -18 q 287 6 254 -18 q 339 65 309 23 l 339 0 l 541 0 m 362 361 q 345 226 362 289 q 295 162 328 162 q 238 227 256 162 q 225 350 225 274 q 241 480 225 424 q 300 536 257 536 q 349 475 332 536 q 362 361 362 427 m 450 833 l 322 1032 l 190 966 l 356 776 l 450 833 "},"â":{"ha":648,"x_min":45,"x_max":561,"o":"m 561 0 l 561 697 l 362 697 l 362 618 q 309 680 330 665 q 226 705 276 705 q 82 587 129 705 q 45 354 45 496 q 87 108 45 210 q 234 -18 138 -18 q 306 6 274 -18 q 358 65 328 23 l 358 0 l 561 0 m 382 361 q 365 226 382 289 q 314 162 348 162 q 257 227 275 162 q 244 350 244 274 q 260 480 244 424 q 319 536 276 536 q 369 475 352 536 q 382 361 382 427 m 539 867 l 340 1037 l 143 879 l 219 784 l 337 879 l 453 781 l 539 867 "},"ä":{"ha":657,"x_min":45,"x_max":575,"o":"m 561 0 l 561 697 l 362 697 l 362 618 q 309 680 330 665 q 226 705 276 705 q 82 587 129 705 q 45 354 45 496 q 87 108 45 210 q 234 -18 138 -18 q 306 6 274 -18 q 358 65 328 23 l 358 0 l 561 0 m 382 361 q 365 226 382 289 q 314 162 348 162 q 257 227 275 162 q 244 350 244 274 q 260 480 244 424 q 319 536 276 536 q 369 475 352 536 q 382 361 382 427 m 575 881 q 546 954 575 923 q 478 985 518 985 q 402 955 434 985 q 370 883 370 924 q 400 810 370 840 q 472 780 430 780 q 545 810 515 780 q 575 881 575 840 m 289 876 q 261 954 289 920 q 191 988 232 988 q 112 954 144 988 q 83 875 79 920 q 114 807 83 835 q 186 779 144 779 q 258 807 227 779 q 289 876 289 836 "},"ã":{"ha":657,"x_min":65,"x_max":580,"o":"m 580 0 l 580 697 l 382 697 l 382 618 q 328 680 349 665 q 245 705 296 705 q 101 587 148 705 q 65 354 65 496 q 106 108 65 210 q 253 -18 157 -18 q 326 6 293 -18 q 378 65 348 23 l 378 0 l 580 0 m 401 361 q 384 226 401 289 q 334 162 367 162 q 276 227 295 162 q 263 350 263 274 q 280 480 263 424 q 339 536 296 536 q 388 475 371 536 q 401 361 401 427 m 569 923 l 506 1003 q 479 958 492 975 q 422 920 450 920 q 311 971 366 946 q 221 996 256 996 q 125 940 173 996 q 75 857 86 894 l 136 778 q 166 828 151 807 q 222 866 197 871 q 347 813 226 864 q 428 793 392 793 q 509 833 469 793 q 569 923 558 884 "},"å":{"ha":657,"x_min":45,"x_max":561,"o":"m 496 931 q 453 1037 496 993 q 348 1081 410 1081 q 242 1034 286 1081 q 199 924 199 987 q 242 822 199 863 q 347 781 286 781 q 452 826 408 781 q 496 931 496 870 m 405 931 q 388 889 405 906 q 348 872 371 872 q 306 890 323 872 q 289 933 289 909 q 307 974 289 958 q 350 990 325 990 q 389 972 374 990 q 405 931 405 954 m 561 0 l 561 697 l 362 697 l 362 618 q 309 680 330 665 q 226 705 276 705 q 82 587 129 705 q 45 354 45 496 q 87 108 45 210 q 234 -18 138 -18 q 306 6 274 -18 q 358 65 328 23 l 358 0 l 561 0 m 382 361 q 365 226 382 289 q 314 162 348 162 q 257 227 275 162 q 244 350 244 274 q 260 480 244 424 q 319 536 276 536 q 369 475 352 536 q 382 361 382 427 "},"ç":{"ha":517,"x_min":80,"x_max":450,"o":"m 450 526 l 450 691 q 399 709 418 705 q 349 714 380 714 q 144 598 217 714 q 80 350 80 498 q 138 105 80 202 q 335 -10 205 -10 q 447 14 392 -10 l 447 193 q 388 174 415 174 q 301 231 332 174 q 275 349 275 279 q 300 479 275 426 q 389 544 330 544 q 450 526 422 544 m 378 -113 l 257 -62 l 145 -249 l 234 -293 l 378 -113 "},"é":{"ha":604,"x_min":40,"x_max":540,"o":"m 540 409 q 480 619 540 532 q 304 715 414 715 q 99 592 169 715 q 40 336 40 489 q 105 93 40 190 q 312 -13 178 -13 q 471 58 413 -13 q 524 221 524 123 l 369 221 q 349 163 369 188 q 299 138 328 138 q 242 177 260 138 q 225 271 225 217 l 225 302 l 533 302 q 537 344 535 310 q 540 409 540 378 m 367 426 l 226 426 q 225 440 225 427 q 239 515 225 480 q 296 563 258 563 q 356 518 336 563 q 369 445 369 487 q 367 426 369 427 m 448 970 l 309 1032 l 175 833 l 273 778 l 448 970 "},"è":{"ha":639,"x_min":77,"x_max":576,"o":"m 576 409 q 517 619 576 532 q 340 715 450 715 q 135 592 205 715 q 77 336 77 489 q 141 93 77 190 q 348 -13 214 -13 q 508 58 449 -13 q 561 221 561 123 l 405 221 q 385 163 405 188 q 335 138 365 138 q 278 177 296 138 q 261 271 261 217 l 261 302 l 570 302 q 574 344 571 310 q 576 409 576 378 m 404 426 l 262 426 q 261 440 261 427 q 275 515 261 480 q 332 563 295 563 q 392 518 373 563 q 405 445 405 487 q 404 426 405 427 m 470 833 l 341 1032 l 209 966 l 375 776 l 470 833 "},"ê":{"ha":639,"x_min":77,"x_max":576,"o":"m 576 409 q 517 619 576 532 q 340 715 450 715 q 135 592 205 715 q 77 336 77 489 q 141 93 77 190 q 348 -13 214 -13 q 508 58 449 -13 q 561 221 561 123 l 405 221 q 385 163 405 188 q 335 138 365 138 q 278 177 296 138 q 261 271 261 217 l 261 302 l 570 302 q 574 344 571 310 q 576 409 576 378 m 404 426 l 262 426 q 261 440 261 427 q 275 515 261 480 q 332 563 295 563 q 392 518 373 563 q 405 445 405 487 q 404 426 405 427 m 554 863 l 356 1033 l 158 875 l 235 780 l 353 875 l 469 778 l 554 863 "},"ë":{"ha":643,"x_min":71,"x_max":576,"o":"m 576 409 q 517 619 576 532 q 340 715 450 715 q 135 592 205 715 q 77 336 77 489 q 141 93 77 190 q 348 -13 214 -13 q 508 58 449 -13 q 561 221 561 123 l 405 221 q 385 163 405 188 q 335 138 365 138 q 278 177 296 138 q 261 271 261 217 l 261 302 l 570 302 q 574 344 571 310 q 576 409 576 378 m 404 426 l 262 426 q 261 440 261 427 q 275 515 261 480 q 332 563 295 563 q 392 518 373 563 q 405 445 405 487 q 404 426 405 427 m 567 884 q 539 957 567 925 q 470 988 510 988 q 394 957 426 988 q 362 885 362 927 q 392 813 362 842 q 465 783 422 783 q 537 813 508 783 q 567 884 567 842 m 282 879 q 253 957 282 923 q 183 990 225 990 q 104 957 136 990 q 75 877 71 923 q 106 809 75 837 q 178 781 136 781 q 251 810 219 781 q 282 879 282 839 "},"í":{"ha":445,"x_min":101,"x_max":374,"o":"m 327 -4 l 327 698 l 126 698 l 126 -4 l 327 -4 m 374 970 l 235 1032 l 101 833 l 199 778 l 374 970 "},"ì":{"ha":440,"x_min":62,"x_max":323,"o":"m 323 0 l 323 701 l 123 701 l 123 0 l 323 0 m 323 837 l 195 1036 l 62 970 l 228 780 l 323 837 "},"î":{"ha":447,"x_min":35,"x_max":431,"o":"m 322 0 l 322 701 l 121 701 l 121 0 l 322 0 m 431 863 l 232 1033 l 35 875 l 112 780 l 230 875 l 345 778 l 431 863 "},"ï":{"ha":449,"x_min":-23,"x_max":472,"o":"m 325 0 l 325 701 l 125 701 l 125 0 l 325 0 m 472 881 q 444 954 472 923 q 375 985 415 985 q 299 955 331 985 q 267 883 267 924 q 297 810 267 840 q 370 780 327 780 q 443 810 413 780 q 472 881 472 840 m 187 876 q 158 954 187 920 q 88 988 130 988 q 9 954 42 988 q -19 875 -23 920 q 11 807 -19 835 q 83 779 42 779 q 156 807 125 779 q 187 876 187 836 "},"ñ":{"ha":620,"x_min":66,"x_max":582,"o":"m 554 0 l 554 571 q 527 662 554 619 q 432 715 493 715 q 299 650 352 715 q 263 587 282 630 l 263 697 l 66 697 l 66 0 l 262 0 l 262 440 q 274 495 262 472 q 313 521 286 518 q 347 501 335 521 q 360 456 360 482 l 360 0 l 554 0 m 582 925 l 519 1006 q 492 961 505 977 q 435 923 463 923 q 324 974 379 949 q 234 998 269 998 q 138 942 186 998 q 88 859 99 897 l 149 780 q 179 831 164 810 q 235 868 210 874 q 360 815 239 867 q 441 796 405 796 q 522 836 482 796 q 582 925 571 887 "},"ó":{"ha":671,"x_min":75,"x_max":607,"o":"m 607 357 q 553 602 607 510 q 343 717 485 717 q 132 600 202 717 q 75 350 75 504 q 132 104 75 199 q 344 -12 201 -12 q 554 106 487 -12 q 607 357 607 200 m 410 362 q 396 231 410 287 q 344 166 378 161 q 283 232 300 173 q 273 345 273 270 q 289 486 273 426 q 348 537 305 546 q 402 471 388 528 q 410 362 410 439 m 492 970 l 353 1032 l 219 833 l 317 778 l 492 970 "},"ò":{"ha":662,"x_min":75,"x_max":607,"o":"m 607 357 q 553 602 607 510 q 343 717 485 717 q 132 600 202 717 q 75 350 75 504 q 132 104 75 199 q 344 -12 201 -12 q 554 106 487 -12 q 607 357 607 200 m 410 362 q 396 231 410 287 q 344 166 378 161 q 283 232 300 173 q 273 345 273 270 q 289 486 273 426 q 348 537 305 546 q 402 471 388 528 q 410 362 410 439 m 478 833 l 349 1032 l 217 966 l 383 776 l 478 833 "},"ô":{"ha":671,"x_min":75,"x_max":607,"o":"m 607 357 q 553 602 607 510 q 343 717 485 717 q 132 600 202 717 q 75 350 75 504 q 132 104 75 199 q 344 -12 201 -12 q 554 106 487 -12 q 607 357 607 200 m 410 362 q 396 231 410 287 q 344 166 378 161 q 283 232 300 173 q 273 345 273 270 q 289 486 273 426 q 348 537 305 546 q 402 471 388 528 q 410 362 410 439 m 562 864 l 363 1035 l 166 876 l 243 781 l 361 876 l 476 779 l 562 864 "},"ö":{"ha":671,"x_min":75,"x_max":607,"o":"m 607 357 q 553 602 607 510 q 343 717 485 717 q 132 600 202 717 q 75 350 75 504 q 132 104 75 199 q 344 -12 201 -12 q 554 106 487 -12 q 607 357 607 200 m 410 362 q 396 231 410 287 q 344 166 378 161 q 283 232 300 173 q 273 345 273 270 q 289 486 273 426 q 348 537 305 546 q 402 471 388 528 q 410 362 410 439 m 598 881 q 570 954 598 923 q 501 985 541 985 q 425 955 457 985 q 393 883 393 924 q 423 810 393 840 q 496 780 453 780 q 569 810 539 780 q 598 881 598 840 m 313 876 q 284 954 313 920 q 214 988 256 988 q 135 954 167 988 q 106 875 103 920 q 137 807 106 835 q 209 779 167 779 q 282 807 251 779 q 313 876 313 836 "},"õ":{"ha":671,"x_min":75,"x_max":607,"o":"m 607 357 q 553 602 607 510 q 343 717 485 717 q 132 600 202 717 q 75 350 75 504 q 132 104 75 199 q 344 -12 201 -12 q 554 106 487 -12 q 607 357 607 200 m 410 362 q 396 231 410 287 q 344 166 378 161 q 283 232 300 173 q 273 345 273 270 q 289 486 273 426 q 348 537 305 546 q 402 471 388 528 q 410 362 410 439 m 593 925 l 531 1006 q 504 961 517 977 q 447 923 475 923 q 336 974 391 949 q 245 998 280 998 q 149 942 197 998 q 100 859 110 897 l 161 780 q 191 831 175 810 q 247 868 222 874 q 371 815 251 867 q 453 796 417 796 q 533 836 493 796 q 593 925 583 887 "},"ú":{"ha":619,"x_min":44,"x_max":528,"o":"m 528 232 l 528 697 l 336 697 l 336 252 q 324 197 336 222 q 287 173 312 173 q 248 197 258 173 q 238 256 238 221 l 238 697 l 44 697 l 44 223 q 103 58 44 121 q 280 -9 166 -9 q 463 59 397 -9 q 528 232 528 127 m 435 970 l 296 1032 l 162 833 l 260 778 l 435 970 "},"ù":{"ha":620,"x_min":44,"x_max":528,"o":"m 528 232 l 528 697 l 336 697 l 336 252 q 324 197 336 222 q 287 173 312 173 q 248 197 258 173 q 238 256 238 221 l 238 697 l 44 697 l 44 223 q 103 58 44 121 q 280 -9 166 -9 q 463 59 397 -9 q 528 232 528 127 m 428 837 l 300 1036 l 167 970 l 334 780 l 428 837 "},"û":{"ha":619,"x_min":44,"x_max":528,"o":"m 528 232 l 528 697 l 336 697 l 336 252 q 324 197 336 222 q 287 173 312 173 q 248 197 258 173 q 238 256 238 221 l 238 697 l 44 697 l 44 223 q 103 58 44 121 q 280 -9 166 -9 q 463 59 397 -9 q 528 232 528 127 m 506 867 l 308 1037 l 110 879 l 187 784 l 305 879 l 421 781 l 506 867 "},"ü":{"ha":624,"x_min":56,"x_max":559,"o":"m 559 232 l 559 697 l 367 697 l 367 252 q 355 197 367 222 q 318 173 343 173 q 279 197 289 173 q 269 256 269 221 l 269 697 l 75 697 l 75 223 q 134 58 75 121 q 312 -9 197 -9 q 494 59 428 -9 q 559 232 559 127 m 552 881 q 523 954 552 923 q 454 985 495 985 q 378 955 410 985 q 347 883 347 924 q 376 810 347 840 q 449 780 406 780 q 522 810 492 780 q 552 881 552 840 m 266 876 q 238 954 266 920 q 167 988 209 988 q 88 954 121 988 q 60 875 56 920 q 90 807 60 835 q 162 779 121 779 q 235 807 204 779 q 266 876 266 836 "},"†":{"ha":685,"x_min":77,"x_max":620,"o":"m 620 535 l 620 710 l 445 710 l 445 1045 l 251 1045 l 251 714 l 77 714 l 77 535 l 254 535 l 254 -226 l 441 -226 l 441 535 l 620 535 "},"°":{"ha":439,"x_min":78,"x_max":375,"o":"m 375 931 q 332 1037 375 993 q 227 1081 289 1081 q 121 1034 165 1081 q 78 924 78 987 q 121 822 78 863 q 226 781 165 781 q 331 826 287 781 q 375 931 375 870 m 284 931 q 267 889 284 906 q 227 872 251 872 q 185 890 201 872 q 169 933 169 907 q 186 974 169 958 q 228 990 204 990 q 268 973 252 990 q 284 931 284 955 "},"¢":{"ha":497,"x_min":70,"x_max":432,"o":"m 432 759 l 432 937 q 393 950 410 948 q 373 954 383 954 q 348 954 362 954 l 349 1046 l 261 1046 l 261 949 q 202 920 231 935 q 116 819 148 885 q 70 582 70 727 q 119 349 70 440 q 210 253 154 286 q 258 235 241 235 l 258 143 l 348 143 l 348 234 q 366 235 354 234 q 393 239 378 236 q 428 254 409 243 l 428 432 q 404 414 414 419 q 379 409 393 409 q 298 454 326 404 q 270 580 270 505 q 298 717 270 654 q 378 780 326 780 q 414 771 398 780 q 432 759 421 767 "},"£":{"ha":771,"x_min":75,"x_max":723,"o":"m 722 736 q 723 762 722 740 q 680 936 723 862 q 458 1051 614 1051 q 238 955 321 1051 q 161 732 161 866 q 178 579 161 681 q 193 493 183 546 l 75 493 l 75 386 l 200 386 q 201 371 200 380 q 201 350 201 365 q 180 250 201 301 q 118 160 158 199 l 118 -1 q 273 27 193 21 q 382 10 315 27 q 550 -22 508 -22 q 570 -22 557 -22 q 594 -19 583 -22 q 711 12 654 -10 l 711 175 q 636 148 666 156 q 567 140 606 140 q 493 149 535 140 q 376 167 410 167 l 325 167 q 367 274 352 218 q 382 334 378 313 q 387 386 387 356 l 567 386 l 567 493 l 392 493 q 386 553 389 514 q 362 736 369 685 q 361 750 362 741 q 391 839 361 800 q 467 877 421 877 q 526 846 506 877 q 546 774 546 815 l 546 736 l 722 736 "},"§":{"ha":723,"x_min":75,"x_max":663,"o":"m 663 389 q 624 526 663 467 q 511 624 585 585 l 418 674 q 322 737 352 709 q 280 824 280 778 q 302 884 280 861 q 356 907 325 907 q 422 881 396 907 q 448 818 448 855 l 448 767 l 632 767 l 632 827 q 554 992 632 929 q 356 1055 475 1055 q 166 984 235 1055 q 103 810 103 918 q 116 720 103 763 q 165 645 130 676 l 183 628 q 102 540 129 592 q 75 430 75 488 q 118 296 75 353 q 228 201 153 249 l 327 139 q 411 74 388 101 q 445 -21 445 35 q 428 -81 445 -58 q 378 -109 411 -104 q 365 -110 374 -109 q 308 -85 328 -110 q 288 -25 288 -60 l 288 10 l 103 10 q 101 -13 103 6 q 143 -161 101 -103 q 382 -257 210 -257 q 561 -199 488 -257 q 640 -31 640 -135 q 623 80 640 32 q 562 165 606 129 l 536 187 q 631 271 600 221 q 663 389 663 321 m 484 383 q 402 280 484 304 l 317 336 q 268 386 286 358 q 251 450 251 413 q 310 550 251 517 l 406 496 q 463 447 443 475 q 484 383 484 419 "},"•":{"ha":667,"x_min":77,"x_max":594,"o":"m 594 428 q 521 609 594 532 q 343 685 447 685 q 155 611 234 685 q 77 428 77 536 q 151 243 77 321 q 331 166 226 166 q 517 243 440 166 q 594 428 594 321 "},"¶":{"ha":827,"x_min":74,"x_max":767,"o":"m 767 876 l 767 1044 l 292 1044 q 134 978 195 1044 q 74 802 74 913 q 134 623 74 683 q 283 558 183 574 l 283 -148 l 453 -148 l 452 880 l 544 880 l 544 -148 l 705 -148 l 705 876 l 767 876 "},"ß":{"ha":693,"x_min":75,"x_max":635,"o":"m 635 313 q 576 527 635 447 q 518 580 546 553 q 569 619 521 583 q 614 780 614 674 q 563 974 614 900 q 387 1060 505 1060 q 190 980 251 1060 q 140 794 140 915 l 140 650 l 75 650 l 75 501 l 140 501 l 140 0 l 322 0 l 322 813 q 334 868 322 845 q 370 892 345 892 q 415 845 405 892 q 421 758 421 823 q 380 662 421 678 q 362 661 374 659 l 362 495 q 387 488 374 491 q 434 314 434 462 q 400 175 434 206 q 362 161 383 160 l 362 0 q 395 -9 383 -6 q 424 -12 406 -12 q 589 78 539 -12 q 635 313 635 157 "},"®":{"ha":1159,"x_min":78,"x_max":1101,"o":"m 589 10 q 974 170 832 10 q 1101 522 1101 314 q 972 875 1101 729 q 589 1035 831 1035 q 205 875 347 1035 q 78 522 78 731 q 206 170 78 314 q 589 10 348 10 m 589 66 q 245 209 373 66 q 132 522 132 336 q 247 836 132 707 q 589 979 374 979 q 933 836 806 979 q 1046 522 1046 709 q 932 209 1046 337 q 589 66 805 66 m 833 208 q 820 231 820 230 q 811 273 814 253 q 807 314 807 293 q 808 342 807 328 q 809 370 809 356 q 804 417 809 393 q 790 459 800 440 q 765 489 780 478 q 731 510 761 492 q 807 568 781 531 q 832 662 832 605 q 759 794 832 755 q 607 823 706 823 l 382 823 l 382 208 l 441 208 l 441 485 l 605 485 q 631 485 614 485 q 667 483 650 485 q 698 471 683 480 q 749 340 746 445 q 765 209 752 235 l 770 208 l 833 208 m 774 656 q 723 559 774 588 q 614 539 685 539 l 443 539 l 441 771 l 617 771 q 724 749 685 771 q 774 656 774 720 "},"©":{"ha":1159,"x_min":74,"x_max":1097,"o":"m 585 14 q 970 174 828 14 q 1097 526 1097 318 q 968 877 1097 733 q 585 1037 827 1037 q 201 877 343 1037 q 74 526 74 735 q 202 174 74 318 q 585 14 345 14 m 585 69 q 243 212 370 69 q 129 526 129 340 q 243 840 129 711 q 585 983 370 983 q 929 840 802 983 q 1042 526 1042 713 q 928 212 1042 340 q 585 69 801 69 m 837 422 l 776 422 q 708 304 762 353 q 591 254 654 254 q 574 256 580 254 q 413 349 460 269 q 378 523 378 410 q 424 709 378 637 q 588 793 479 793 q 702 761 650 793 q 766 670 753 728 l 770 650 l 831 650 l 827 675 q 746 802 813 757 q 589 848 679 848 q 386 746 461 848 q 318 522 318 654 q 373 304 318 386 q 571 205 437 205 q 748 264 675 205 q 837 422 820 323 "},"™":{"ha":1020,"x_min":77,"x_max":959,"o":"m 445 1003 l 445 1046 l 77 1046 l 77 1003 l 235 1003 l 235 533 l 284 533 l 284 1003 l 445 1003 m 959 533 l 959 1042 l 887 1042 l 722 596 l 561 1044 l 483 1044 l 483 533 l 533 533 l 533 988 l 696 535 l 741 535 l 910 987 l 910 533 l 959 533 "},"´":{"ha":395,"x_min":71,"x_max":344,"o":"m 344 977 l 205 1040 l 71 841 l 169 785 l 344 977 "},"¨":{"ha":633,"x_min":71,"x_max":567,"o":"m 567 879 q 539 951 567 920 q 470 983 510 983 q 394 952 426 983 q 362 880 362 922 q 392 807 362 837 q 465 778 422 778 q 537 807 508 778 q 567 879 567 837 m 282 874 q 253 951 282 918 q 183 985 225 985 q 104 951 136 985 q 75 872 71 918 q 106 804 75 832 q 178 776 136 776 q 251 805 219 776 q 282 874 282 833 "},"≠":{"ha":900,"x_min":82,"x_max":835,"o":"m 835 169 l 835 254 l 441 254 l 558 450 l 835 450 l 835 533 l 602 533 l 710 726 l 639 768 l 508 533 l 82 535 l 82 450 l 460 450 l 352 254 l 82 254 l 82 171 l 302 170 l 201 -14 l 271 -57 l 398 169 l 835 169 "},"Æ":{"ha":1018,"x_min":61,"x_max":949,"o":"m 949 839 l 949 1048 l 496 1048 l 61 -4 l 267 -4 l 336 165 l 540 165 l 540 -4 l 946 -4 l 946 188 l 739 188 l 739 419 l 922 419 l 922 614 l 739 614 l 739 839 l 949 839 m 545 332 l 396 332 l 545 761 l 545 332 "},"Ø":{"ha":883,"x_min":80,"x_max":815,"o":"m 815 532 q 794 728 815 635 q 731 896 774 822 l 802 1027 l 654 1063 l 627 1012 q 445 1066 549 1066 q 161 892 258 1066 q 80 531 80 748 q 101 330 80 426 q 165 160 121 235 l 87 17 l 238 -16 l 269 43 q 353 2 309 16 q 449 -12 397 -12 q 732 165 633 -12 q 815 532 815 313 m 528 832 l 306 422 l 302 524 q 334 758 302 662 q 453 874 373 880 q 495 863 478 874 q 528 832 513 853 m 591 532 q 563 302 591 391 q 445 184 527 184 q 403 195 422 184 q 367 225 384 205 l 587 630 l 591 532 "},"∞":{"ha":1195,"x_min":82,"x_max":1127,"o":"m 1127 370 q 1061 519 1127 457 q 906 580 996 580 q 798 555 852 580 q 688 482 744 530 l 604 405 l 519 482 q 411 555 466 530 q 301 580 356 580 q 146 519 210 580 q 82 370 82 457 q 148 202 82 267 q 296 141 210 141 q 418 169 353 141 q 536 245 483 196 l 604 308 l 671 245 q 789 167 726 193 q 910 141 852 141 q 1062 205 997 141 q 1127 370 1127 269 m 1050 365 q 1009 258 1050 301 q 900 214 968 214 q 815 227 850 214 q 745 273 780 240 l 650 360 l 752 436 q 805 474 793 467 q 901 500 849 500 q 1006 461 962 500 q 1050 365 1050 422 m 557 360 l 463 273 q 392 227 427 240 q 308 214 357 214 q 198 258 239 214 q 157 365 157 301 q 201 461 157 423 q 306 500 244 500 q 386 482 348 500 q 456 436 411 469 l 557 360 "},"±":{"ha":718,"x_min":74,"x_max":650,"o":"m 650 419 l 650 491 l 401 491 l 401 741 l 334 741 l 334 491 l 84 491 l 84 419 l 334 419 l 334 169 l 398 169 l 398 419 l 650 419 m 644 -1 l 644 52 l 74 52 l 74 -1 l 644 -1 "},"≤":{"ha":685,"x_min":62,"x_max":636,"o":"m 636 147 l 636 222 l 157 447 l 635 661 l 635 737 l 62 476 l 62 415 l 636 147 m 635 -1 l 635 64 l 62 64 l 62 -1 l 635 -1 "},"≥":{"ha":688,"x_min":60,"x_max":633,"o":"m 633 417 l 633 478 l 61 739 l 61 661 l 539 447 l 60 222 l 60 148 l 633 417 m 633 0 l 633 65 l 61 65 l 61 0 l 633 0 "},"¥":{"ha":784,"x_min":47,"x_max":739,"o":"m 739 1045 l 514 1045 l 400 710 l 269 1045 l 47 1045 l 244 613 l 93 613 l 93 458 l 296 458 l 296 367 l 91 367 l 91 214 l 296 214 l 296 0 l 498 0 l 497 214 l 710 214 l 710 367 l 497 367 l 497 458 l 714 458 l 714 613 l 546 613 l 739 1045 "},"µ":{"ha":875,"x_min":57,"x_max":822,"o":"m 822 140 l 796 140 l 785 103 q 724 40 772 49 q 662 70 685 32 q 639 154 639 108 l 639 701 l 523 701 l 523 215 q 461 112 523 160 q 348 67 404 67 q 257 113 293 67 q 221 218 221 158 l 221 701 l 103 701 l 103 0 l 99 -40 q 67 -148 97 -48 q 57 -227 57 -182 q 76 -284 57 -260 q 125 -309 95 -309 q 176 -282 157 -309 q 195 -218 195 -254 q 161 -73 195 -170 q 145 10 145 -29 l 145 60 q 226 -3 175 21 q 306 -22 269 -22 q 392 6 343 -22 q 484 77 441 34 l 521 112 q 558 21 521 60 q 643 -26 596 -18 q 744 4 688 -32 q 813 96 801 40 l 822 140 "},"∂":{"ha":772,"x_min":74,"x_max":706,"o":"m 706 554 q 609 893 706 750 q 328 1050 501 1050 q 263 1045 292 1050 q 195 1029 234 1040 l 134 1011 l 188 945 l 214 953 q 270 972 225 955 q 353 988 315 988 q 539 874 471 988 q 598 628 598 772 q 597 584 598 598 q 592 541 596 570 l 580 470 l 537 500 q 452 550 484 537 q 357 567 410 567 q 156 474 238 567 q 74 254 74 380 q 143 63 74 139 q 340 -26 213 -13 q 363 -27 348 -27 q 618 167 518 -27 q 706 554 706 340 m 570 417 l 549 306 q 485 109 526 184 q 357 9 432 9 q 337 10 344 9 q 318 16 331 12 q 224 90 254 35 q 193 217 193 144 q 206 310 193 261 q 279 448 230 395 q 404 509 335 509 q 437 505 419 509 q 531 453 489 493 l 570 417 "},"Σ":{"ha":1115,"x_min":74,"x_max":1051,"o":"m 1051 175 l 1019 175 q 1001 105 1019 135 q 951 51 984 75 q 857 16 905 16 l 283 16 l 713 498 l 312 984 l 728 984 q 809 977 776 984 q 868 945 841 970 q 922 820 922 897 l 951 820 l 950 1048 l 175 1048 l 83 1057 l 582 436 l 74 -121 l 892 -121 l 993 -141 q 998 -55 993 -91 q 1010 17 1003 -18 q 1027 95 1016 52 q 1051 175 1038 138 "},"∏":{"ha":1258,"x_min":70,"x_max":1195,"o":"m 1195 -126 l 1195 -103 l 1163 -101 q 1117 -96 1136 -101 q 1080 -73 1098 -91 q 1057 -36 1062 -56 q 1051 22 1051 -16 l 1051 861 q 1060 934 1051 906 q 1097 985 1070 962 q 1131 1007 1118 1001 q 1164 1014 1145 1014 l 1195 1015 l 1195 1046 l 77 1046 l 77 1016 l 101 1015 q 137 1006 121 1014 q 170 984 153 998 q 215 881 215 944 l 215 34 q 210 -33 215 -8 q 185 -74 205 -58 q 152 -92 165 -90 q 105 -93 139 -93 l 70 -93 l 70 -126 l 515 -126 l 515 -96 l 487 -96 q 440 -93 457 -96 q 405 -77 423 -90 q 374 -33 380 -57 q 367 32 367 -9 l 367 964 l 889 964 l 889 23 q 889 -4 889 14 q 885 -43 889 -27 q 865 -75 880 -60 q 835 -93 850 -90 q 787 -97 820 -97 l 750 -99 l 750 -126 l 1195 -126 "},"π":{"ha":872,"x_min":75,"x_max":818,"o":"m 818 219 l 790 219 l 784 196 q 753 136 776 158 q 694 113 729 113 q 627 150 653 113 q 601 235 601 187 l 620 578 l 810 578 l 810 696 l 289 696 q 241 691 263 696 q 196 674 219 685 q 126 609 151 650 q 84 518 121 600 l 75 498 l 100 488 q 125 529 104 504 q 167 563 147 554 q 200 572 188 571 q 221 572 212 572 q 239 572 226 572 l 286 572 l 253 262 q 241 224 251 245 q 228 191 232 202 q 161 110 226 186 q 140 60 140 87 q 144 29 140 45 q 173 -1 148 12 q 199 -12 183 -8 q 221 -16 215 -16 q 287 31 258 -16 q 317 123 310 70 l 374 578 l 541 578 l 509 270 q 505 206 505 239 q 531 61 505 116 q 630 -6 563 -6 q 755 50 705 -6 q 814 188 805 106 l 818 219 "},"∫":{"ha":491,"x_min":77,"x_max":439,"o":"m 435 1111 q 413 1158 439 1140 q 356 1177 388 1177 q 263 1109 296 1177 q 225 845 225 1027 l 225 232 q 227 149 226 191 q 228 64 228 106 q 220 -33 228 0 q 188 -60 212 -66 q 164 -38 178 -57 q 130 -19 149 -19 q 92 -36 108 -19 q 77 -75 77 -53 q 93 -115 77 -97 q 127 -138 109 -132 q 160 -143 145 -143 q 286 27 251 -143 q 306 296 306 127 l 306 737 q 292 919 306 765 q 287 1019 287 975 q 295 1077 287 1059 q 321 1088 302 1096 q 347 1070 326 1085 q 374 1059 361 1059 q 415 1073 398 1059 q 435 1111 432 1088 "},"ª":{"ha":548,"x_min":87,"x_max":462,"o":"m 462 530 l 462 1036 l 317 1036 l 317 977 q 278 1024 295 1011 q 218 1042 254 1042 q 113 957 147 1042 q 87 788 87 892 q 117 607 87 681 q 225 517 153 517 q 276 535 253 517 q 314 576 293 548 l 314 530 l 462 530 m 441 301 l 441 435 l 132 435 l 132 301 l 441 301 m 328 790 q 316 692 328 739 q 279 646 304 646 q 243 678 257 646 q 228 781 228 710 q 240 876 228 833 q 279 918 252 918 q 315 885 301 915 q 328 790 328 855 "},"º":{"ha":556,"x_min":91,"x_max":476,"o":"m 476 784 q 437 963 476 897 q 284 1046 389 1046 q 131 961 182 1046 q 91 780 91 892 q 132 601 91 670 q 286 518 183 518 q 437 604 388 518 q 476 784 476 671 m 434 301 l 434 435 l 125 435 l 125 301 l 434 301 m 334 789 q 322 688 334 735 q 286 645 310 641 q 243 686 253 650 q 234 776 234 722 q 239 849 234 816 q 288 916 251 924 q 327 868 317 910 q 334 789 334 841 "},"Ω":{"ha":1147,"x_min":78,"x_max":1080,"o":"m 1080 -3 l 1080 215 l 1053 215 q 1040 167 1053 187 q 1008 139 1027 147 q 964 131 989 131 l 735 131 l 735 173 q 957 299 874 197 q 1041 543 1041 401 q 918 802 1041 710 q 580 894 794 894 q 245 802 374 894 q 116 543 116 709 q 201 300 116 402 q 422 173 286 197 l 422 131 l 192 131 q 118 166 143 131 q 105 215 105 187 l 78 215 l 78 -3 l 497 -3 l 476 205 q 326 336 375 251 q 278 540 278 422 q 344 759 278 680 q 582 852 421 852 q 824 758 754 852 q 879 540 879 685 q 831 336 879 422 q 681 205 783 251 l 661 -3 l 1080 -3 "},"æ":{"ha":996,"x_min":79,"x_max":914,"o":"m 914 402 q 854 613 914 526 q 678 709 788 709 q 594 697 632 709 l 396 697 l 396 618 q 343 680 363 665 q 260 705 310 705 q 116 587 162 705 q 79 354 79 496 q 121 108 79 210 q 267 -18 171 -18 q 340 6 308 -18 q 392 65 362 23 l 392 0 l 576 0 q 685 -19 619 -19 q 845 52 787 -19 q 898 214 898 117 l 742 214 q 722 156 742 182 q 672 131 702 131 q 616 171 633 131 q 598 265 598 210 l 598 296 l 907 296 q 911 337 909 304 q 914 402 914 371 m 741 419 l 600 419 q 598 434 598 421 q 613 509 598 474 q 670 557 632 557 q 729 511 710 557 q 742 439 742 480 q 741 419 742 421 m 415 344 q 396 216 415 275 q 348 157 376 157 q 291 225 309 157 q 278 350 278 273 q 294 480 278 424 q 353 536 310 536 q 402 475 386 536 q 415 344 415 426 "},"ø":{"ha":667,"x_min":73,"x_max":602,"o":"m 602 362 q 579 513 602 432 q 540 609 561 574 l 591 689 l 519 733 l 483 675 q 430 705 448 697 q 339 720 391 720 q 130 604 199 720 q 73 354 73 506 q 90 217 73 287 q 126 114 106 148 l 75 34 l 148 -13 l 184 48 q 225 19 186 47 q 339 -5 273 -5 q 546 113 478 -5 q 602 362 602 210 m 404 366 q 389 234 404 289 q 337 170 371 164 q 276 236 292 177 q 267 349 267 271 q 289 509 267 461 q 341 541 308 549 q 395 475 380 532 q 404 366 404 439 "},"¿":{"ha":696,"x_min":80,"x_max":632,"o":"m 352 467 q 448 506 414 467 q 483 597 483 544 q 450 687 483 652 q 352 727 414 727 q 255 689 288 727 q 222 597 222 652 q 256 506 222 544 q 352 467 291 467 m 631 -40 l 435 -39 q 437 -57 437 -44 q 423 -125 437 -92 q 373 -165 405 -165 q 317 -127 334 -165 q 301 -34 301 -88 q 321 74 301 29 q 388 130 341 119 q 418 134 406 134 q 456 126 434 134 l 457 388 l 248 388 l 248 251 q 161 201 245 249 q 80 -45 80 123 q 162 -259 80 -173 q 378 -345 243 -345 q 596 -225 532 -345 q 632 -57 632 -156 q 631 -40 632 -51 "},"¡":{"ha":409,"x_min":77,"x_max":341,"o":"m 341 578 q 302 668 341 631 q 209 706 263 706 q 116 670 154 706 q 77 579 77 633 q 113 485 77 524 q 204 447 149 447 q 300 485 258 447 q 341 578 341 524 m 312 -345 l 312 383 l 113 383 l 113 -345 l 312 -345 "},"¬":{"ha":1164,"x_min":71,"x_max":1096,"o":"m 1096 0 l 1096 436 l 71 436 l 71 357 l 1011 357 l 1011 0 l 1096 0 "},"√":{"ha":802,"x_min":77,"x_max":739,"o":"m 739 1142 l 694 1149 l 526 131 l 266 641 l 77 552 l 97 509 l 219 571 l 543 -67 l 739 1142 "},"ƒ":{"ha":753,"x_min":61,"x_max":694,"o":"m 692 1120 q 694 1132 694 1128 q 673 1170 694 1154 q 627 1186 652 1186 q 489 1060 549 1186 q 413 811 445 967 l 404 774 l 231 774 l 227 715 l 383 715 l 284 222 q 232 -18 241 6 q 179 -70 209 -79 q 160 -49 170 -67 q 130 -30 149 -30 q 88 -43 105 -30 q 64 -82 71 -57 q 61 -95 61 -90 q 73 -128 61 -113 q 102 -148 86 -143 q 135 -153 118 -153 q 302 18 230 -153 q 380 286 348 125 l 466 714 l 615 714 l 622 772 l 482 772 l 488 801 q 509 945 497 835 q 558 1102 526 1102 q 571 1098 563 1102 q 593 1079 572 1097 q 618 1068 605 1068 q 692 1120 671 1068 "},"≈":{"ha":990,"x_min":79,"x_max":923,"o":"m 923 548 l 862 587 l 835 557 q 775 515 806 527 q 698 498 744 502 q 630 509 666 498 q 561 530 594 519 l 449 563 q 384 581 410 575 q 330 587 357 587 q 280 583 308 587 q 182 552 223 574 q 100 487 141 530 l 79 463 l 145 421 l 171 448 q 283 513 218 498 q 314 517 301 517 q 363 509 335 517 q 417 495 391 501 l 544 460 q 621 434 583 447 q 701 422 659 422 q 807 443 762 422 q 893 513 852 465 l 923 548 m 923 301 l 862 339 l 835 310 q 775 268 806 280 q 698 252 744 256 q 630 262 666 252 q 561 283 594 273 l 449 317 q 386 334 397 331 q 327 340 354 340 q 280 336 306 340 q 182 304 222 326 q 100 240 141 283 l 79 217 l 145 174 l 171 201 q 283 266 218 252 q 314 269 295 269 q 363 262 337 269 q 417 247 389 254 l 544 212 q 622 187 583 199 q 701 175 662 175 q 807 197 762 175 q 893 266 852 218 l 923 301 "},"∆":{"ha":1062,"x_min":73,"x_max":1005,"o":"m 1005 0 l 570 1044 l 73 0 l 1005 0 m 820 67 l 170 67 l 513 796 l 820 67 "},"«":{"ha":810,"x_min":75,"x_max":749,"o":"m 749 553 l 749 698 l 450 478 l 450 330 l 744 101 l 744 254 l 536 401 l 749 553 m 374 553 l 374 698 l 75 478 l 75 330 l 370 101 l 370 254 l 162 401 l 374 553 "},"»":{"ha":805,"x_min":73,"x_max":746,"o":"m 746 330 l 746 478 l 448 698 l 448 553 l 659 401 l 452 254 l 452 101 l 746 330 m 371 330 l 371 478 l 73 698 l 73 553 l 286 401 l 78 254 l 78 101 l 371 330 "},"…":{"ha":1228,"x_min":73,"x_max":1158,"o":"m 1158 122 q 1117 215 1158 177 q 1020 253 1076 253 q 929 214 966 253 q 893 121 893 175 q 933 31 893 67 q 1025 -6 972 -6 q 1119 31 1080 -6 q 1158 122 1158 69 m 752 118 q 711 211 752 173 q 613 249 670 249 q 523 210 559 249 q 487 117 487 171 q 526 27 487 64 q 619 -9 565 -9 q 713 27 674 -9 q 752 118 752 64 m 337 118 q 297 211 337 173 q 199 249 256 249 q 109 210 145 249 q 73 117 73 171 q 112 27 73 64 q 205 -9 151 -9 q 299 27 260 -9 q 337 118 337 64 "}," ":{"ha":558,"x_min":0,"x_max":0,"o":""},"À":{"ha":780,"x_min":32,"x_max":737,"o":"m 737 0 l 496 1045 l 278 1045 l 32 0 l 239 0 l 276 175 l 480 175 l 522 0 l 737 0 m 453 343 l 308 343 l 378 771 l 453 343 m 517 1172 l 388 1371 l 256 1305 l 422 1115 l 517 1172 "},"Ã":{"ha":771,"x_min":69,"x_max":774,"o":"m 774 0 l 532 1045 l 314 1045 l 69 0 l 275 0 l 313 175 l 517 175 l 558 0 l 774 0 m 489 343 l 344 343 l 414 771 l 489 343 m 671 1258 l 609 1338 q 582 1293 594 1310 q 524 1255 553 1255 q 413 1306 469 1281 q 323 1330 358 1330 q 227 1275 275 1330 q 178 1192 188 1229 l 239 1112 q 269 1163 253 1142 q 325 1201 300 1206 q 449 1147 328 1199 q 531 1128 495 1128 q 611 1168 571 1128 q 671 1258 661 1219 "},"Õ":{"ha":870,"x_min":67,"x_max":802,"o":"m 802 532 q 720 894 802 750 q 432 1066 623 1066 q 148 892 245 1066 q 67 531 67 748 q 149 164 67 310 q 436 -12 247 -12 q 719 165 620 -12 q 802 532 802 313 m 578 532 q 550 302 578 391 q 432 184 514 184 q 315 301 350 184 q 289 524 289 386 q 322 754 289 661 q 450 874 363 874 q 543 797 509 874 q 578 532 578 720 m 705 1260 l 643 1341 q 615 1295 628 1312 q 558 1258 587 1258 q 447 1308 502 1284 q 357 1333 392 1333 q 261 1277 309 1333 q 212 1194 222 1232 l 273 1115 q 302 1166 287 1145 q 358 1203 334 1208 q 483 1150 362 1202 q 565 1131 528 1131 q 645 1171 605 1131 q 705 1260 694 1221 "},"Œ":{"ha":1084,"x_min":100,"x_max":1001,"o":"m 1001 848 l 1001 1044 l 624 1044 q 584 1055 601 1053 q 465 1066 532 1066 q 180 892 278 1066 q 100 531 100 748 q 183 164 100 312 q 469 -12 282 -12 q 552 -9 517 -12 q 624 0 588 -6 l 998 0 l 998 197 l 790 197 l 790 428 l 974 428 l 974 623 l 790 623 l 790 848 l 1001 848 m 610 532 q 583 302 610 391 q 465 184 546 184 q 348 301 383 184 q 322 524 322 386 q 354 754 322 661 q 483 874 396 874 q 576 797 541 874 q 610 532 610 720 "},"œ":{"ha":999,"x_min":75,"x_max":916,"o":"m 916 409 q 857 619 916 532 q 680 715 790 715 q 588 698 630 715 q 515 648 546 680 q 441 699 483 681 q 343 717 398 717 q 132 600 202 717 q 75 350 75 504 q 132 104 75 199 q 344 -12 201 -12 q 438 6 397 -12 q 510 55 479 23 q 688 -13 578 -13 q 848 58 789 -13 q 901 221 901 123 l 745 221 q 725 163 745 188 q 675 138 705 138 q 620 173 639 138 q 601 258 601 209 l 606 302 l 910 302 q 914 344 911 310 q 916 409 916 378 m 744 426 l 604 426 q 621 517 604 471 q 672 563 639 563 q 732 518 713 563 q 745 445 745 487 q 744 426 745 427 m 410 362 q 396 231 410 287 q 344 166 378 161 q 283 232 300 173 q 273 345 273 270 q 289 486 273 426 q 348 537 305 546 q 402 471 388 528 q 410 362 410 439 "},"–":{"ha":662,"x_min":75,"x_max":597,"o":"m 597 344 l 597 527 l 75 527 l 75 344 l 597 344 "},"—":{"ha":1175,"x_min":70,"x_max":1115,"o":"m 1115 343 l 1115 527 l 70 526 l 70 343 l 1115 343 "},"“":{"ha":742,"x_min":75,"x_max":678,"o":"m 678 1044 l 537 1044 l 335 622 l 543 622 l 678 1044 m 418 1044 l 278 1044 l 75 622 l 283 622 l 418 1044 "},"”":{"ha":733,"x_min":75,"x_max":678,"o":"m 678 1044 l 470 1044 l 335 622 l 474 622 l 678 1044 m 418 1044 l 210 1044 l 75 622 l 214 622 l 418 1044 "},"‘":{"ha":488,"x_min":75,"x_max":418,"o":"m 418 1044 l 278 1044 l 75 622 l 283 622 l 418 1044 "},"’":{"ha":488,"x_min":84,"x_max":427,"o":"m 427 1044 l 219 1044 l 84 622 l 225 622 l 427 1044 "},"÷":{"ha":1010,"x_min":75,"x_max":941,"o":"m 594 571 q 567 637 594 610 q 501 665 540 665 q 436 637 463 665 q 409 574 409 610 q 435 506 409 533 q 500 478 462 478 q 567 505 540 478 q 594 571 594 532 m 941 300 l 941 393 l 75 393 l 75 300 l 941 300 m 593 121 q 566 186 593 158 q 500 213 539 213 q 435 187 462 213 q 408 122 408 161 q 434 55 408 83 q 498 26 460 26 q 565 54 537 26 q 593 121 593 82 "},"◊":{"ha":794,"x_min":84,"x_max":727,"o":"m 727 530 l 453 1050 l 363 1050 l 84 537 l 363 -1 l 453 -1 l 727 530 m 644 530 l 410 65 l 170 533 l 406 972 l 644 530 "},"ÿ":{"ha":662,"x_min":34,"x_max":614,"o":"m 614 654 l 415 654 l 326 257 l 226 654 l 34 654 l 230 -27 l 117 -386 l 314 -386 l 614 654 m 593 881 q 565 954 593 923 q 496 985 536 985 q 420 955 452 985 q 388 883 388 924 q 418 810 388 840 q 491 780 448 780 q 563 810 533 780 q 593 881 593 840 m 308 876 q 279 954 308 920 q 209 988 251 988 q 130 954 162 988 q 101 875 97 920 q 132 807 101 835 q 204 779 162 779 q 276 807 245 779 q 308 876 308 836 "},"Ÿ":{"ha":794,"x_min":47,"x_max":739,"o":"m 739 1045 l 514 1045 l 400 710 l 269 1045 l 47 1045 l 296 500 l 296 0 l 498 0 l 497 501 l 739 1045 m 645 1214 q 617 1286 645 1255 q 548 1317 588 1317 q 472 1287 504 1317 q 440 1215 440 1256 q 470 1142 440 1172 q 543 1112 500 1112 q 615 1142 585 1112 q 645 1214 645 1172 m 360 1208 q 331 1286 360 1253 q 261 1320 302 1320 q 182 1286 214 1320 q 153 1207 149 1253 q 184 1139 153 1167 q 256 1111 214 1111 q 328 1140 297 1111 q 360 1208 360 1168 "},"·":{"ha":409,"x_min":77,"x_max":341,"o":"m 341 523 q 300 616 341 578 q 202 654 260 654 q 113 615 149 654 q 77 522 77 576 q 116 432 77 469 q 209 396 154 396 q 302 432 263 396 q 341 523 341 469 "},"‚":{"ha":488,"x_min":84,"x_max":427,"o":"m 427 167 l 219 167 l 84 -254 l 225 -254 l 427 167 "},"„":{"ha":733,"x_min":75,"x_max":678,"o":"m 678 167 l 470 167 l 335 -254 l 474 -254 l 678 167 m 418 167 l 210 167 l 75 -254 l 214 -254 l 418 167 "},"Â":{"ha":771,"x_min":32,"x_max":737,"o":"m 737 0 l 496 1045 l 278 1045 l 32 0 l 239 0 l 276 175 l 480 175 l 522 0 l 737 0 m 453 343 l 308 343 l 378 771 l 453 343 m 593 1198 l 395 1368 l 197 1210 l 274 1115 l 392 1210 l 508 1112 l 593 1198 "},"Ê":{"ha":607,"x_min":99,"x_max":514,"o":"m 514 848 l 514 1045 l 99 1045 l 99 0 l 511 0 l 511 197 l 304 197 l 304 426 l 487 426 l 487 623 l 304 623 l 304 848 l 514 848 m 500 1198 l 301 1368 l 104 1210 l 180 1115 l 299 1210 l 414 1112 l 500 1198 "},"Á":{"ha":779,"x_min":32,"x_max":737,"o":"m 737 0 l 496 1045 l 278 1045 l 32 0 l 239 0 l 276 175 l 480 175 l 522 0 l 737 0 m 453 343 l 308 343 l 378 771 l 453 343 m 523 1305 l 384 1367 l 251 1168 l 348 1112 l 523 1305 "},"Ë":{"ha":615,"x_min":56,"x_max":552,"o":"m 514 848 l 514 1045 l 99 1045 l 99 0 l 511 0 l 511 197 l 304 197 l 304 426 l 487 426 l 487 623 l 304 623 l 304 848 l 514 848 m 552 1214 q 523 1286 552 1255 q 454 1317 495 1317 q 378 1287 410 1317 q 347 1215 347 1256 q 376 1142 347 1172 q 449 1112 406 1112 q 522 1142 492 1112 q 552 1214 552 1172 m 266 1208 q 238 1286 266 1253 q 167 1320 209 1320 q 88 1286 121 1320 q 60 1207 56 1253 q 90 1139 60 1167 q 162 1111 121 1111 q 235 1140 204 1111 q 266 1208 266 1168 "},"È":{"ha":615,"x_min":99,"x_max":514,"o":"m 514 848 l 514 1045 l 99 1045 l 99 0 l 511 0 l 511 197 l 304 197 l 304 426 l 487 426 l 487 623 l 304 623 l 304 848 l 514 848 m 431 1172 l 302 1371 l 170 1305 l 336 1115 l 431 1172 "},"Í":{"ha":413,"x_min":64,"x_max":336,"o":"m 310 0 l 310 1045 l 100 1045 l 100 0 l 310 0 m 336 1305 l 197 1367 l 64 1168 l 161 1112 l 336 1305 "},"Î":{"ha":413,"x_min":18,"x_max":414,"o":"m 310 0 l 310 1045 l 100 1045 l 100 0 l 310 0 m 414 1198 l 215 1368 l 18 1210 l 95 1115 l 213 1210 l 328 1112 l 414 1198 "},"Ï":{"ha":428,"x_min":-38,"x_max":458,"o":"m 310 0 l 310 1045 l 100 1045 l 100 0 l 310 0 m 458 1214 q 430 1286 458 1255 q 361 1317 401 1317 q 285 1287 317 1317 q 253 1215 253 1256 q 283 1142 253 1172 q 356 1112 313 1112 q 428 1142 398 1112 q 458 1214 458 1172 m 173 1208 q 144 1286 173 1253 q 74 1320 116 1320 q -5 1286 27 1320 q -34 1207 -38 1253 q -3 1139 -34 1167 q 69 1111 27 1111 q 141 1140 110 1111 q 173 1208 173 1168 "},"Ì":{"ha":405,"x_min":77,"x_max":337,"o":"m 310 0 l 310 1045 l 100 1045 l 100 0 l 310 0 m 337 1172 l 209 1371 l 77 1305 l 243 1115 l 337 1172 "},"Ó":{"ha":888,"x_min":80,"x_max":815,"o":"m 815 532 q 733 894 815 750 q 445 1066 636 1066 q 161 892 258 1066 q 80 531 80 748 q 162 164 80 310 q 449 -12 260 -12 q 732 165 633 -12 q 815 532 815 313 m 591 532 q 563 302 591 391 q 445 184 527 184 q 328 301 363 184 q 302 524 302 386 q 335 754 302 661 q 463 874 376 874 q 556 797 522 874 q 591 532 591 720 m 585 1305 l 447 1367 l 313 1168 l 410 1112 l 585 1305 "},"Ô":{"ha":888,"x_min":80,"x_max":815,"o":"m 815 532 q 733 894 815 750 q 445 1066 636 1066 q 161 892 258 1066 q 80 531 80 748 q 162 164 80 310 q 449 -12 260 -12 q 732 165 633 -12 q 815 532 815 313 m 591 532 q 563 302 591 391 q 445 184 527 184 q 328 301 363 184 q 302 524 302 386 q 335 754 302 661 q 463 874 376 874 q 556 797 522 874 q 591 532 591 720 m 663 1198 l 465 1368 l 267 1210 l 344 1115 l 462 1210 l 578 1112 l 663 1198 "},"Ò":{"ha":888,"x_min":80,"x_max":815,"o":"m 815 532 q 733 894 815 750 q 445 1066 636 1066 q 161 892 258 1066 q 80 531 80 748 q 162 164 80 310 q 449 -12 260 -12 q 732 165 633 -12 q 815 532 815 313 m 591 532 q 563 302 591 391 q 445 184 527 184 q 328 301 363 184 q 302 524 302 386 q 335 754 302 661 q 463 874 376 874 q 556 797 522 874 q 591 532 591 720 m 587 1172 l 458 1371 l 326 1305 l 492 1115 l 587 1172 "},"Ú":{"ha":755,"x_min":75,"x_max":687,"o":"m 687 275 l 687 1045 l 480 1045 l 480 286 q 462 206 480 234 q 383 173 439 173 q 308 204 339 173 q 278 282 278 236 l 278 1045 l 75 1045 l 75 254 q 153 58 75 130 q 380 -14 230 -14 q 623 70 546 -14 q 687 275 687 140 m 523 1305 l 384 1367 l 251 1168 l 348 1112 l 523 1305 "},"Û":{"ha":755,"x_min":75,"x_max":687,"o":"m 687 275 l 687 1045 l 480 1045 l 480 286 q 462 206 480 234 q 383 173 439 173 q 308 204 339 173 q 278 282 278 236 l 278 1045 l 75 1045 l 75 254 q 153 58 75 130 q 380 -14 230 -14 q 623 70 546 -14 q 687 275 687 140 m 585 1198 l 387 1368 l 190 1210 l 266 1115 l 384 1210 l 500 1112 l 585 1198 "},"Ù":{"ha":755,"x_min":75,"x_max":687,"o":"m 687 275 l 687 1045 l 480 1045 l 480 286 q 462 206 480 234 q 383 173 439 173 q 308 204 339 173 q 278 282 278 236 l 278 1045 l 75 1045 l 75 254 q 153 58 75 130 q 380 -14 230 -14 q 623 70 546 -14 q 687 275 687 140 m 517 1172 l 388 1371 l 256 1305 l 422 1115 l 517 1172 "}}}
